<?xml version="1.0" encoding="UTF-8"?>
<svg id="Layer_2" data-name="Layer 2" xmlns="http://www.w3.org/2000/svg" viewBox="0 0 177.79 67.09">
  <defs>
    <style>
      .cls-1 {
        fill: #ff3c23;
      }

      .cls-2 {
        fill: #020055;
      }

      .cls-3 {
        fill: #811e3b;
      }
    </style>
  </defs>
  <g id="Layer_1-2" data-name="Layer 1">
    <g>
      <g>
        <path d="m38.22,54.79c.53,3.16,3.05,5.45,6.74,5.45,4.92,0,7.67-2.46,7.67-8.02v-2.11c-1.17,1.87-3.87,3.69-8.02,3.69-7.67,0-13.41-5.92-13.41-14,0-7.62,5.51-14.06,13.41-14.06,4.57,0,7.21,1.99,8.2,3.92v-3.4h7.5v25.72c0,7.91-4.28,15.11-15.11,15.11-7.91,0-13.18-4.92-14-10.43l7.03-1.87Zm14.53-15c0-4.45-3.05-7.26-6.79-7.26s-6.91,2.81-6.91,7.26,2.87,7.32,6.91,7.32,6.79-2.87,6.79-7.32Z"/>
        <path d="m91.11,46.82c-1.46,4.98-6.03,9.14-13.12,9.14-7.91,0-14.88-5.68-14.88-15.41,0-9.2,6.79-15.17,14.18-15.17,8.9,0,14.23,5.68,14.23,14.94,0,1.11-.12,2.28-.12,2.4h-20.62c.18,3.81,3.4,6.56,7.26,6.56,3.63,0,5.62-1.82,6.56-4.39l6.5,1.93Zm-7.26-9.43c-.12-2.87-1.99-5.68-6.44-5.68-4.04,0-6.27,3.05-6.44,5.68h12.89Z"/>
        <path d="m122.22,49.87c0,1.93.12,4.04.23,5.21h-7.44c-.12-.59-.29-1.99-.29-3.34-1.29,2.28-4.22,4.04-8.08,4.04-8.2,0-14.06-6.44-14.06-15.17s5.68-15.05,13.82-15.05c4.98,0,7.32,2.05,8.14,3.57V12.67h7.67v37.2Zm-14.64-1.05c3.98,0,7.09-3.05,7.09-8.26s-3.1-8.03-7.09-8.03-7.15,2.93-7.15,8.08,3.05,8.2,7.15,8.2Z"/>
        <path d="m131.59,11.97c2.69,0,4.8,2.17,4.8,4.86s-2.11,4.75-4.8,4.75-4.8-2.17-4.8-4.75,2.17-4.86,4.8-4.86Zm-3.87,43.11v-28.82h7.79v28.82h-7.79Z"/>
        <path d="m150.51,26.26h5.8v6.91h-5.8v12.07c0,2.52,1.17,3.34,3.4,3.34.94,0,1.99-.12,2.4-.23v6.44c-.7.29-2.11.7-4.39.7-5.62,0-9.14-3.34-9.14-8.9v-13.41h-5.21v-6.91h1.46c3.05,0,4.45-1.99,4.45-4.57v-4.04h7.03v8.61Z"/>
        <path d="m163.62,18.97l6.6-5.67h-11.03v-4.62h17.82v4.31l-6.52,5.44c3.81.16,7.3,3.07,7.3,7.69,0,4.35-3.57,8.35-9.67,8.35s-9.44-3.81-9.75-8.04l5.16-1.01c.12,2.56,1.94,4.43,4.58,4.43s4.27-1.71,4.27-3.81c0-2.37-1.71-3.73-4.12-3.73-1.09,0-1.75.19-2.29.39l-2.37-3.73Z"/>
      </g>
      <g>
        <rect class="cls-1" width="21.14" height="21.14"/>
        <rect class="cls-3" y="21.14" width="21.14" height="21.14"/>
        <rect class="cls-2" y="42.28" width="21.14" height="21.14"/>
      </g>
    </g>
  </g>
</svg>