<?xml version="1.0" encoding="UTF-8"?>
<svg id="Layer_2" data-name="Layer 2" xmlns="http://www.w3.org/2000/svg" viewBox="0 0 190.25 432.25">
  <defs>
    <style>
      .cls-1 {
        stroke: #000;
        stroke-linecap: round;
      }

      .cls-1, .cls-2 {
        fill: none;
        stroke-miterlimit: 10;
      }

      .cls-2 {
        stroke: red;
        stroke-width: 2px;
      }
    </style>
  </defs>
  <g id="Layer_2-2" data-name="Layer 2">
    <g>
      <path class="cls-2" d="m122.19,64.12c-13.64,0-21.6-17.54-21.6-30.95s7.96-25.79,21.6-25.79,21.6,12.38,21.6,25.79-7.96,30.95-21.6,30.95Z"/>
      <path class="cls-2" d="m134.54,58.96c1.14,5.16-1.14,9.29,17.05,19.6,18.19,10.32,17.05,2.06,23.87,27.86,6.82,25.79-1.14,25.79,4.55,44.36s3.41,70.16,3.41,70.16c0,0-1.14,2.06,2.27,9.29s6.82,13.41-2.27,24.76c-9.09,11.35-2.27-15.48-4.55-17.54s-2.27,14.44-5.68,13.41c-3.41-1.03-3.5-17.29-2.27-34.05,1.14-15.48-4.55-27.86-6.82-47.46-1.92-16.54-9.09-21.67-5.68-45.39l-.98,12.36c0,5.77-.79,4.15-2.27,21.67-1.14,13.41,6.82,22.7,10.23,60.87,3.41,42.3-9.08,67.9-10.23,89.76-1.14,21.67,4.55,31.98,1.14,51.58-2.16,12.4-6.82,29.92-6.82,43.33-.29,4.62,3.41,12.38,4.55,18.57.77,4.2-15.91,5.16-19.32,3.1s-2.27-9.29-2.27-19.6c0-18.57-3.41-43.16-3.41-55.71,0-8.25.66-32.96-1.14-48.49-2.27-19.6-2.27-67.04-4.55-67.04h-2.27c-1.14,0-2.27,47.46-4.55,67.06-1.8,15.53-1.14,40.24-1.14,48.49,0,12.55-3.41,37.14-3.41,55.71,0,10.32,1.14,17.54-2.27,19.6s-20.09,1.1-19.32-3.1c1.14-6.19,4.83-13.95,4.55-18.57,0-13.41-4.66-30.93-6.82-43.33-3.41-19.6,2.27-29.92,1.14-51.58-1.15-21.86-13.64-47.46-10.23-89.76,3.41-38.17,11.37-47.46,10.23-60.87-1.48-17.52-2.27-15.9-2.27-21.67l-1.14-12.38c3.41,23.73-3.76,28.85-5.68,45.39-2.27,19.6-7.96,31.98-6.82,47.46,1.23,16.76,1.14,33.01-2.27,34.05s-3.41-15.48-5.68-13.41,4.55,28.89-4.55,17.54c-9.09-11.35-5.68-17.54-2.27-24.76s2.27-9.29,2.27-9.29c0,0-2.27-51.58,3.41-70.16,5.68-18.57-2.27-18.57,4.55-44.36s5.68-17.54,23.87-27.86,15.91-14.44,17.05-19.6"/>
    </g>
    <line class="cls-1" x1="2.77" y1=".5" x2="122.12" y2="220.25"/>
    <line class="cls-1" x1="2.77" y1="39.7" x2="69.83" y2="180.02"/>
    <line class="cls-1" x1="2.77" y1="79.94" x2="94.84" y2="269.77"/>
    <line class="cls-1" x1="2.77" y1="120.18" x2="113.02" y2="33.51"/>
    <line class="cls-1" x1="2.77" y1="158.35" x2="90.29" y2="203.74"/>
    <line class="cls-1" x1="2.77" y1="197.55" x2="135.75" y2="120.18"/>
    <line class="cls-1" x1="2.77" y1="236.76" x2="140.3" y2="202.71"/>
    <line class="cls-1" x1="1.64" y1="275.96" x2="94.84" y2="221.28"/>
    <line class="cls-1" x1="2.77" y1="314.14" x2="99.38" y2="188.27"/>
    <line class="cls-1" x1="1.64" y1="353.34" x2="106.2" y2="145.97"/>
    <line class="cls-1" x1="2.77" y1="393.58" x2="111.89" y2="67.56"/>
    <line class="cls-1" x1="2.77" y1="431.75" x2="143.71" y2="134.62"/>
    <line class="cls-1" x1="1.64" y1=".5" x2="68.7" y2="127.4"/>
    <line class="cls-1" x1="1.64" y1="39.7" x2="119.84" y2="144.94"/>
    <line class="cls-1" x1="1.64" y1="78.91" x2="122.12" y2="222.32"/>
    <line class="cls-1" x1=".5" y1="120.18" x2="119.84" y2="54.15"/>
    <line class="cls-1" x1="1.64" y1="158.35" x2="63.01" y2="184.14"/>
    <line class="cls-1" x1="1.64" y1="197.55" x2="111.89" y2="197.55"/>
    <line class="cls-1" x1="1.64" y1="236.76" x2="94.84" y2="141.84"/>
    <line class="cls-1" x1="2.77" y1="274.93" x2="120.98" y2="80.97"/>
    <line class="cls-1" x1="1.64" y1="314.14" x2="120.98" y2="55.18"/>
    <line class="cls-1" x1="2.77" y1="353.34" x2="120.98" y2="70.66"/>
    <line class="cls-1" x1="1.64" y1="392.55" x2="120.98" y2="212"/>
    <line class="cls-1" x1="1.64" y1="431.75" x2="92.56" y2="278.03"/>
  </g>
</svg>